<svg width="14" height="14" viewBox="0 0 14 14" fill="none" xmlns="http://www.w3.org/2000/svg">
<path fill-rule="evenodd" clip-rule="evenodd" d="M3.09012 5.08368C3.21028 4.97211 3.4051 4.97211 3.52526 5.08368L7 8.31022L10.4747 5.08368C10.5949 4.9721 10.7897 4.9721 10.9099 5.08368C11.03 5.19526 11.03 5.37617 10.9099 5.48774L7.21757 8.91632C7.09741 9.02789 6.90259 9.02789 6.78243 8.91632L3.09012 5.48774C2.96996 5.37617 2.96996 5.19526 3.09012 5.08368Z" fill="#1E2125"/>
<path fill-rule="evenodd" clip-rule="evenodd" d="M2.92001 4.90049C3.13609 4.69984 3.47929 4.69984 3.69538 4.90049L7 7.96906L10.3046 4.90048C10.5207 4.69984 10.8639 4.69984 11.08 4.90048C11.3067 5.11097 11.3067 5.46046 11.08 5.67094L7.38769 9.09951C7.1716 9.30016 6.8284 9.30016 6.61232 9.09951L2.92001 5.67094C2.69333 5.46046 2.69333 5.11097 2.92001 4.90049ZM3.30769 5.25C3.28693 5.25 3.27045 5.2574 3.26023 5.26688C3.2551 5.27164 3.25277 5.27565 3.25164 5.27825C3.25044 5.28099 3.25 5.28348 3.25 5.28571C3.25 5.28795 3.25044 5.29044 3.25164 5.29318C3.25277 5.29578 3.2551 5.29978 3.26023 5.30455L6.95254 8.73312C6.96276 8.7426 6.97923 8.75 7 8.75C7.02077 8.75 7.03724 8.7426 7.04746 8.73312L10.7398 5.30455C10.7449 5.29978 10.7472 5.29578 10.7484 5.29317C10.7496 5.29043 10.75 5.28795 10.75 5.28571C10.75 5.28348 10.7496 5.28099 10.7484 5.27825C10.7472 5.27565 10.7449 5.27164 10.7398 5.26688C10.7296 5.25739 10.7131 5.25 10.6923 5.25C10.6715 5.25 10.6551 5.25739 10.6448 5.26688L7.17011 8.49342C7.07419 8.58249 6.92581 8.58249 6.82989 8.49342L3.35515 5.26688C3.34493 5.2574 3.32846 5.25 3.30769 5.25Z" fill="#1E2125"/>
</svg>
