<svg width="14" height="14" viewBox="0 0 14 14" fill="none" xmlns="http://www.w3.org/2000/svg">
<path fill-rule="evenodd" clip-rule="evenodd" d="M10.9099 8.91632C10.7897 9.02789 10.5949 9.02789 10.4747 8.91632L7 5.68977L3.52526 8.91632C3.4051 9.02789 3.21028 9.02789 3.09012 8.91632C2.96996 8.80474 2.96996 8.62383 3.09012 8.51226L6.78243 5.08368C6.90259 4.97211 7.09741 4.97211 7.21757 5.08368L10.9099 8.51226C11.03 8.62383 11.03 8.80474 10.9099 8.91632Z" fill="#1E2125"/>
<path fill-rule="evenodd" clip-rule="evenodd" d="M11.08 9.09951C10.8639 9.30016 10.5207 9.30016 10.3046 9.09951L7 6.03094L3.69538 9.09951C3.47929 9.30016 3.13609 9.30016 2.92001 9.09951C2.69333 8.88903 2.69333 8.53954 2.92001 8.32906L6.61232 4.90049C6.8284 4.69984 7.1716 4.69984 7.38768 4.90049L11.08 8.32906C11.3067 8.53954 11.3067 8.88903 11.08 9.09951ZM10.6923 8.75C10.7131 8.75 10.7296 8.7426 10.7398 8.73312C10.7449 8.72835 10.7472 8.72435 10.7484 8.72175C10.7496 8.71901 10.75 8.71652 10.75 8.71429C10.75 8.71205 10.7496 8.70956 10.7484 8.70682C10.7472 8.70422 10.7449 8.70022 10.7398 8.69545L7.04746 5.26688C7.03724 5.2574 7.02077 5.25 7 5.25C6.97923 5.25 6.96276 5.2574 6.95254 5.26688L3.26023 8.69545C3.2551 8.70022 3.25277 8.70422 3.25164 8.70682C3.25044 8.70956 3.25 8.71205 3.25 8.71429C3.25 8.71652 3.25044 8.71901 3.25164 8.72175C3.25277 8.72435 3.2551 8.72836 3.26023 8.73312C3.27045 8.7426 3.28692 8.75 3.30769 8.75C3.32846 8.75 3.34493 8.7426 3.35515 8.73312L6.82989 5.50658C6.92581 5.41751 7.07419 5.41751 7.17011 5.50658L10.6448 8.73312C10.6551 8.7426 10.6715 8.75 10.6923 8.75Z" fill="#1E2125"/>
</svg>
