<svg width="12" height="7" viewBox="0 0 12 7" fill="none" xmlns="http://www.w3.org/2000/svg">
<path d="M4.25 6.1875C4.25 5.94588 4.44588 5.75 4.6875 5.75H7.3125C7.55412 5.75 7.75 5.94588 7.75 6.1875C7.75 6.42912 7.55412 6.625 7.3125 6.625H4.6875C4.44588 6.625 4.25 6.42912 4.25 6.1875Z" fill="#1E2125"/>
<path d="M2.5 3.5625C2.5 3.32088 2.69588 3.125 2.9375 3.125H9.0625C9.30412 3.125 9.5 3.32088 9.5 3.5625C9.5 3.80412 9.30412 4 9.0625 4H2.9375C2.69588 4 2.5 3.80412 2.5 3.5625Z" fill="#1E2125"/>
<path d="M0.75 0.9375C0.75 0.695875 0.945875 0.5 1.1875 0.5H10.8125C11.0541 0.5 11.25 0.695875 11.25 0.9375C11.25 1.17912 11.0541 1.375 10.8125 1.375H1.1875C0.945875 1.375 0.75 1.17912 0.75 0.9375Z" fill="#1E2125"/>
</svg>
