<svg width="26" height="26" viewBox="0 0 26 26" fill="none" xmlns="http://www.w3.org/2000/svg">
<path d="M2.6064 9.43774H7.17727V23.193H2.6064V9.43774ZM4.92243 2.80713C3.35801 2.80713 2.33594 3.83418 2.33594 5.18222C2.33594 6.50253 3.3281 7.55944 4.86261 7.55944H4.89176C6.48609 7.55944 7.47896 6.50248 7.47896 5.18222C7.44905 3.83418 6.48614 2.80713 4.92243 2.80713ZM18.4 9.11462C15.9737 9.11462 14.8868 10.4491 14.2804 11.385V9.43774H9.70816C9.76869 10.7281 9.70816 23.193 9.70816 23.193H14.2804V15.5111C14.2804 15.0996 14.3103 14.6897 14.4306 14.395C14.7617 13.5737 15.5139 12.7231 16.7758 12.7231C18.4314 12.7231 19.0925 13.9851 19.0925 15.8334V23.1929H23.6641V15.3054C23.6641 11.0805 21.4093 9.11462 18.4 9.11462Z" fill="white"/>
</svg>
