<svg width="26" height="26" viewBox="0 0 26 26" fill="none" xmlns="http://www.w3.org/2000/svg">
<path d="M24.2316 6.90895C23.4011 7.27813 22.5072 7.52716 21.5694 7.6386C22.5269 7.06534 23.2612 6.15729 23.6074 5.07405C22.7118 5.60558 21.7202 5.99127 20.6641 6.19948C19.8188 5.29877 18.6141 4.7356 17.2809 4.7356C14.7214 4.7356 12.6462 6.81081 12.6462 9.37077C12.6462 9.73353 12.687 10.0871 12.7663 10.427C8.91401 10.2334 5.49828 8.38843 3.2121 5.58402C2.81311 6.26827 2.58472 7.06442 2.58472 7.91468C2.58472 9.52257 3.40288 10.9415 4.64664 11.7725C3.88718 11.7482 3.1722 11.5395 2.54712 11.1924C2.54666 11.2116 2.54666 11.2314 2.54666 11.2511C2.54666 13.4964 4.14446 15.3694 6.26507 15.7959C5.87617 15.9014 5.46663 15.9583 5.04379 15.9583C4.74478 15.9583 4.45448 15.9294 4.17152 15.8748C4.76175 17.7161 6.47328 19.0566 8.50126 19.0938C6.91492 20.3371 4.91676 21.0782 2.74478 21.0782C2.37101 21.0782 2.00183 21.0562 1.63907 21.0131C3.69089 22.3288 6.12703 23.0956 8.74432 23.0956C17.2703 23.0956 21.9321 16.033 21.9321 9.9078C21.9321 9.70693 21.928 9.50652 21.9193 9.30748C22.8246 8.65534 23.6106 7.83855 24.2316 6.90895Z" fill="white"/>
</svg>
