<svg width="26" height="26" viewBox="0 0 26 26" fill="none" xmlns="http://www.w3.org/2000/svg">
<path d="M25.2417 7.90841C25.2417 7.69175 24.9167 5.95841 24.1584 5.20008C23.1834 4.11675 22.1 4.00841 21.5584 4.00841H21.45C18.0917 3.79175 13.1084 3.79175 13 3.79175C13 3.79175 7.90835 3.79175 4.55002 4.00841H4.44169C3.90002 4.00841 2.81669 4.11675 1.84169 5.20008C1.08335 6.06675 0.758354 7.80008 0.758354 8.01675C0.758354 8.12508 0.541687 10.0751 0.541687 12.1334V13.9751C0.541687 16.0334 0.758354 17.9834 0.758354 18.0917C0.758354 18.3084 1.08335 20.0417 1.84169 20.8001C2.70835 21.7751 3.79169 21.8834 4.44169 21.9917C4.55002 21.9917 4.65835 21.9917 4.76669 21.9917C6.71669 22.2084 12.675 22.2084 12.8917 22.2084C12.8917 22.2084 17.9834 22.2084 21.3417 21.9917H21.45C21.9917 21.8834 23.075 21.7751 24.05 20.8001C24.8084 19.9334 25.1334 18.2001 25.1334 17.9834C25.1334 17.8751 25.35 15.9251 25.35 13.8667V12.0251C25.4584 10.0751 25.2417 8.01675 25.2417 7.90841ZM17.225 13.2167L10.725 16.6834C10.6167 16.6834 10.6167 16.7917 10.5084 16.7917C10.4 16.7917 10.2917 16.7917 10.2917 16.6834C10.1834 16.5751 10.075 16.4667 10.075 16.2501V9.20841C10.075 8.99175 10.1834 8.88341 10.2917 8.77508C10.4 8.66675 10.6167 8.66675 10.8334 8.77508L17.3334 12.2417C17.55 12.3501 17.6584 12.4584 17.6584 12.6751C17.6584 12.8917 17.4417 13.1084 17.225 13.2167Z" fill="white"/>
</svg>
