<svg width="31" height="31" viewBox="0 0 31 31" fill="none" xmlns="http://www.w3.org/2000/svg">
<path d="M9.875 7.8584C6.78125 7.8584 4.25 10.3896 4.25 13.4834V22.8584H13.625V13.4834H6.125C6.125 11.4031 7.79469 9.7334 9.875 9.7334V7.8584ZM23 7.8584C19.9062 7.8584 17.375 10.3896 17.375 13.4834V22.8584H26.75V13.4834H19.25C19.25 11.4031 20.9197 9.7334 23 9.7334V7.8584ZM6.125 15.3584H11.75V20.9834H6.125V15.3584ZM19.25 15.3584H24.875V20.9834H19.25V15.3584Z" fill="#BF1B2C"/>
<path d="M9.875 7.8584C6.78125 7.8584 4.25 10.3896 4.25 13.4834V22.8584H13.625V13.4834H6.125C6.125 11.4031 7.79469 9.7334 9.875 9.7334V7.8584ZM23 7.8584C19.9062 7.8584 17.375 10.3896 17.375 13.4834V22.8584H26.75V13.4834H19.25C19.25 11.4031 20.9197 9.7334 23 9.7334V7.8584ZM6.125 15.3584H11.75V20.9834H6.125V15.3584ZM19.25 15.3584H24.875V20.9834H19.25V15.3584Z" fill="url(#paint0_linear_131_776)"/>
<defs>
<linearGradient id="paint0_linear_131_776" x1="26.7422" y1="13.8732" x2="4.24209" y2="13.8831" gradientUnits="userSpaceOnUse">
<stop stop-color="#B30415"/>
<stop offset="0.260995" stop-color="#B30819"/>
<stop offset="1" stop-color="#43081A"/>
</linearGradient>
</defs>
</svg>
