<svg width="31" height="31" viewBox="0 0 31 31" fill="none" xmlns="http://www.w3.org/2000/svg">
<path d="M21.125 22.8589C24.2188 22.8589 26.75 20.3276 26.75 17.2339L26.75 7.85889L17.375 7.85889L17.375 17.2339L24.875 17.2339C24.875 19.3142 23.2053 20.9839 21.125 20.9839V22.8589ZM8 22.8589C11.0938 22.8589 13.625 20.3276 13.625 17.2339L13.625 7.85889L4.25 7.85889L4.25 17.2339L11.75 17.2339C11.75 19.3142 10.0803 20.9839 8 20.9839V22.8589ZM24.875 15.3589L19.25 15.3589L19.25 9.73389L24.875 9.73389L24.875 15.3589ZM11.75 15.3589L6.125 15.3589V9.73389L11.75 9.73389L11.75 15.3589Z" fill="#BF1B2C"/>
<path d="M21.125 22.8589C24.2188 22.8589 26.75 20.3276 26.75 17.2339L26.75 7.85889L17.375 7.85889L17.375 17.2339L24.875 17.2339C24.875 19.3142 23.2053 20.9839 21.125 20.9839V22.8589ZM8 22.8589C11.0938 22.8589 13.625 20.3276 13.625 17.2339L13.625 7.85889L4.25 7.85889L4.25 17.2339L11.75 17.2339C11.75 19.3142 10.0803 20.9839 8 20.9839V22.8589ZM24.875 15.3589L19.25 15.3589L19.25 9.73389L24.875 9.73389L24.875 15.3589ZM11.75 15.3589L6.125 15.3589V9.73389L11.75 9.73389L11.75 15.3589Z" fill="url(#paint0_linear_131_779)"/>
<defs>
<linearGradient id="paint0_linear_131_779" x1="4.25782" y1="16.844" x2="26.7579" y2="16.8342" gradientUnits="userSpaceOnUse">
<stop stop-color="#B30415"/>
<stop offset="0.260995" stop-color="#B30819"/>
<stop offset="1" stop-color="#43081A"/>
</linearGradient>
</defs>
</svg>
